<svg width="276" height="83" viewBox="0 0 276 83" fill="none" xmlns="http://www.w3.org/2000/svg">
<g clip-path="url(#clip0_1_79)">
<path d="M0 0H251.7C264.814 0 275.464 10.6102 275.464 23.6826V83.0029H0V0Z" fill="white"/>
<path d="M34.7297 60.4376H19.4228V23.6797H34.7297C47.0245 23.6797 54.2784 31.5214 54.2784 42.0587C54.2784 52.5959 47.0245 60.4376 34.7297 60.4376V60.4376ZM28.3365 31.3376V52.7797H34.0535C40.4468 52.7797 45.0573 49.1652 45.0573 42.0587C45.0573 34.9521 40.4468 31.3376 34.0535 31.3376H28.3365V31.3376Z" fill="#231F20"/>
<path d="M72.9664 23.6797H74.4418L93.806 60.4376H83.7243L81.6956 56.0879H65.651L63.6839 60.4376H53.6636L72.9664 23.6797V23.6797ZM73.8885 39.2405H73.3967L68.8476 48.8589L68.2944 49.8391H78.9908L78.4375 48.8589L73.8885 39.2405V39.2405Z" fill="#231F20"/>
<path d="M96.8797 23.6797H114.277C123.621 23.6797 129.584 28.4582 129.584 36.4837C129.584 41.6298 127.248 45.3056 123.436 47.4498V48.2462L131.735 59.825V60.4376H121.592L114.338 49.7166H105.793V60.4376H96.8797V23.6797V23.6797ZM113.908 31.3376H105.793V42.365H113.969C118.088 42.365 120.363 40.5271 120.363 36.8513C120.363 33.1755 118.027 31.3376 113.908 31.3376V31.3376Z" fill="#231F20"/>
<path d="M166.468 41.1397L156.878 50.513H155.341L145.628 41.0784V60.4376H136.776V23.6797H139.174L155.956 39.4243L172.984 23.6797H175.32V60.4376H166.468V41.1397V41.1397Z" fill="#231F20"/>
<path d="M197.755 23.6797H199.231L218.595 60.4376H208.513L206.484 56.0879H190.44L188.473 60.4376H178.452L197.755 23.6797V23.6797ZM198.677 39.2405H198.185L193.636 48.8589L193.083 49.8391H203.78L203.226 48.8589L198.677 39.2405V39.2405Z" fill="#231F20"/>
<path d="M242.877 41.6298L254.311 60.4376H243.492L237.713 49.594L236.176 46.3471C235.746 47.1435 235.07 48.6751 234.639 49.594L228.861 60.4376H218.103L229.353 41.6298L218.287 23.6797H229.045L234.639 33.9106L236.176 37.3414C236.607 36.4837 237.283 34.8296 237.713 33.9106C239.619 30.5412 241.402 27.1104 243.307 23.6797H254.065L242.877 41.6298V41.6298Z" fill="#74BBE8"/>
<path d="M213.633 41.5773C221.352 40.5358 229.098 40.2995 236.864 40.2645C244.63 40.2937 252.376 40.53 260.095 41.5773C252.376 42.6246 244.63 42.8609 236.864 42.8901C229.098 42.8551 221.352 42.6188 213.633 41.5773Z" fill="#74BBE8"/>
<path d="M236.513 65.0819C235.468 57.1294 235.231 49.1564 235.196 41.1601C235.225 33.1638 235.462 25.1908 236.513 17.2383C237.564 25.1879 237.801 33.1638 237.83 41.1601C237.795 49.1564 237.558 57.1294 236.513 65.0819Z" fill="#74BBE8"/>
</g>
<defs>
<clipPath id="clip0_1_79">
<rect width="275.464" height="83" fill="white"/>
</clipPath>
</defs>
</svg>
